# xmcd
#
# Track frame offsets:
#	150
#	11050
#	40030
#	47167
#	56752
#	67607
#	78845
#	93460
#	107832
#	124560
#	132380
#	142670
#	153952
#	159777
#	172430
#	183487
#	195795
#	207245
#	219887
#	239220
#	256007
#	277940
#	300532
#
# Disc length: 4049 seconds
#
# Revision: 2
# Processed by: cddbd v1.5.2PL0 Copyright (c) Steve Scherf et al.
# Submitted via: EZCDAudioConverter 2.1.7.1
#
DISCID=2e0fcf17
DTITLE=The Charlatans - The Amazing Charlatans
DYEAR=1996
DGENRE=
TTITLE0=Codine Blues
TTITLE1=Alabama Bound
TTITLE2=I Always Wanted A Girl Like You
TTITLE3=I Saw Her
TTITLE4=How Can I Miss You When You Won't Go Away
TTITLE5=32-20
TTITLE6=We're Not On The Same Trip
TTITLE7=Walkin'
TTITLE8=Sweet Sue, Just You
TTITLE9=East Virginia
TTITLE10=The Shadow Knows
TTITLE11=I Got Mine
TTITLE12=Steppin' In Society
TTITLE13=Devil Got My Man
TTITLE14=By Hook Or By Crook
TTITLE15='Long Come A Viper
TTITLE16=Sidetrack
TTITLE17=Alabama Bound [Kama Sutra Version - Dan Hicks Vocal]
TTITLE18=Number One
TTITLE19=Baby Won't You Tell Me
TTITLE20=Jack Of Diamonds
TTITLE21=The Blues Ain't Nothin'
TTITLE22=Groom N' Clean Ad
EXTD=
EXTT0=
EXTT1=
EXTT2=
EXTT3=
EXTT4=
EXTT5=
EXTT6=
EXTT7=
EXTT8=
EXTT9=
EXTT10=
EXTT11=
EXTT12=
EXTT13=
EXTT14=
EXTT15=
EXTT16=
EXTT17=
EXTT18=
EXTT19=
EXTT20=
EXTT21=
EXTT22=
PLAYORDER=
